<svg id="Rocks" xmlns="http://www.w3.org/2000/svg" viewBox="0 0 297.33 296.45"><defs><style>.cls-1,.cls-2{stroke:#000;stroke-miterlimit:10;stroke-width:6px;}.cls-2{fill:#58595b;}.cls-3{fill:#fff;}</style></defs><rect class="cls-1" x="3" y="292.36" width="291.33" height="1.09" rx="0.54"/><path class="cls-2" d="M90.91,292.36c-58,2.27-107.62-70.75.81-86.55s172.73-1.9,175.45,37.6-50.67,44.5-86.36,49Z"/><path class="cls-2" d="M105.35,204c-69.48-10.12-93.17-45.27,0-74.15,169.45-27.51,170.54,69.63,91.81,65.93C167.19,204.45,105.35,204,105.35,204Z"/><path class="cls-2" d="M118.46,127.88c-57-6.52-60-47.39-9.3-61.28S245.92,59.24,247,93.84s-56.59,33-56.59,33Z"/><path class="cls-2" d="M117.43,64.58C78.65,59,60.39,38,105.89,12.65s94.81,5.45,93.72,21-20.42,26.14-30.78,26.19Z"/><path class="cls-3" d="M92.65,39.16l0,0a3,3,0,0,1-.46-4.32C99.45,26.41,114.51,14,131.84,13A3,3,0,0,1,135,16v0a3,3,0,0,1-2.87,2.9c-15.73.93-29.51,13-35.48,19.79A3,3,0,0,1,92.65,39.16Z"/><path class="cls-3" d="M85.9,101.29h0a2.47,2.47,0,0,1-2.37-2.77C85.1,85.4,95.76,73.3,148.58,69.88a2.49,2.49,0,0,1,2.63,2.34v0a2.49,2.49,0,0,1-2.33,2.62c-54,3.5-59.63,16.29-60.42,24.16A2.48,2.48,0,0,1,85.9,101.29Z"/><path d="M205.33,112.18H205a2.49,2.49,0,0,1-2.47-2.55v0a2.5,2.5,0,0,1,2.48-2.44c19.39-.12,25.19-7.28,27.34-13.64a2.48,2.48,0,0,1,2.93-1.61h0a2.49,2.49,0,0,1,1.78,3.25C231.62,110.82,214.19,112.18,205.33,112.18Z"/><path d="M157.74,48.58h0a2.5,2.5,0,0,1,2.14-2.74c6.36-.9,18.77-3.48,23.79-10.21a2.49,2.49,0,0,1,3.11-.73h0a2.49,2.49,0,0,1,.91,3.69c-6.06,8.12-19.37,11.12-27.11,12.21A2.51,2.51,0,0,1,157.74,48.58Z"/><path class="cls-3" d="M65.36,180a2.5,2.5,0,0,1-3.5,1.42c-3.92-2-8.43-5.77-8.26-11.16.32-10.28,17.23-20,51.66-29.69a2.49,2.49,0,0,1,3.08,1.74h0a2.5,2.5,0,0,1-1.73,3.06c-42.95,12.09-47.91,21.51-48,25-.09,2.78,2.77,5.14,5.49,6.53A2.51,2.51,0,0,1,65.36,180Z"/><line class="cls-3" x1="118.24" y1="138.88" x2="129.05" y2="136.98"/><rect class="cls-3" x="118.16" y="135.43" width="10.97" height="5" rx="2.5" transform="translate(-22.09 23.59) rotate(-10.01)"/><path d="M191.18,184.27l0-.25a2.36,2.36,0,0,1,2.06-2.62c32.49-4,38.69-10.91,39.84-13.75.24-.58.86-2.13-.66-4.73a2.41,2.41,0,0,1,.5-3.1l.2-.16a2.39,2.39,0,0,1,3.57.66c2.29,3.88,1.89,7.08,1,9.21-3.25,8-18,13.67-43.88,16.83A2.37,2.37,0,0,1,191.18,184.27Z"/><path d="M177.91,281.29h0a2.49,2.49,0,0,1,2.22-2.76l.56-.06c8.53-.87,26.28-2.7,41.8-6.55,16.25-4,25.86-9.18,28-15a2.53,2.53,0,0,1,2.6-1.65h0a2.51,2.51,0,0,1,2.08,3.41c-6,15.91-44.66,21.75-74,24.77l-.56.05A2.48,2.48,0,0,1,177.91,281.29Z"/><path d="M255.4,249.85h0a2.5,2.5,0,0,1-1.81-2.8,18.79,18.79,0,0,0-1.91-12,2.49,2.49,0,0,1,.66-3.15h0a2.49,2.49,0,0,1,3.73.78,23.49,23.49,0,0,1,2.46,15.13A2.52,2.52,0,0,1,255.4,249.85Z"/><path class="cls-3" d="M41.53,251.3a2.45,2.45,0,0,1-2.94-2c-.74-4.85-.61-10.59,3.44-15.9,5.44-7.14,19.56-17,79-20.73a2.45,2.45,0,0,1,2.6,2.31V215a2.46,2.46,0,0,1-2.31,2.59c-43.12,2.7-67.77,8.85-75.33,18.77-2.46,3.23-3.24,6.92-2.48,12.08a2.49,2.49,0,0,1-1.91,2.81Z"/><line class="cls-3" x1="128.5" y1="214.44" x2="143.21" y2="213.53"/><rect class="cls-3" x="128.49" y="211.49" width="14.74" height="5" rx="2.5" transform="translate(-12.91 8.76) rotate(-3.53)"/></svg>