<?xml version="1.0" encoding="utf-8"?>
<!-- Generator: Adobe Illustrator 21.0.0, SVG Export Plug-In . SVG Version: 6.00 Build 0)  -->
<svg xmlns="http://www.w3.org/2000/svg" xmlns:xlink="http://www.w3.org/1999/xlink" version="1.1" id="Layer_1" x="0px" y="0px" viewBox="0 0 256 256" style="enable-background:new 0 0 256 256;" xml:space="preserve" width="512" height="512">
<style type="text/css">
	.st0{fill:#F45D64;}
	.st1{fill:#E9E9EA;}
	.st2{fill:#6D6C6B;}
	.st3{fill:#60BAE2;}
	.st4{fill:#F9D0B4;}
	.st5{fill:#6DCC6D;}
	.st6{fill:#FCD770;}
	.st7{fill:#231F20;}
</style>
<g id="Layer_19">
	<circle class="st0" cx="179.7" cy="213.9" r="39.6"/>
	<circle class="st1" cx="179.7" cy="213.9" r="29.9"/>
	<circle class="st2" cx="179.7" cy="213.9" r="4.9"/>
	<path class="st0" d="M211.8,160.9c-6.3-3.6-14.3-2.3-19.1,3.2c-0.9,1-0.7,2.6,0.3,3.4c0.1,0.1,0.2,0.2,0.4,0.2l21.7,12.5   c1.2,0.7,2.7,0.3,3.3-0.9c0.1-0.1,0.1-0.3,0.2-0.4C221,172.1,218.1,164.5,211.8,160.9z"/>
	<path class="st0" d="M147.7,160.9c6.3-3.6,14.3-2.3,19.1,3.2c0.9,1,0.7,2.6-0.3,3.4c-0.1,0.1-0.2,0.2-0.4,0.2l-21.7,12.5   c-1.2,0.7-2.7,0.3-3.3-0.9c-0.1-0.1-0.1-0.3-0.2-0.4C138.5,172.1,141.4,164.5,147.7,160.9z"/>
	<path class="st3" d="M140.1,213.9c0-2.2,0.2-4.4,0.6-6.6l-12.8-15.9l0,0c-0.7,1.5-2.2,2.4-3.8,2.4h-15c-1.4,0-2.8-0.7-3.6-1.9   l-13.2,16.4c-1.3,1.7-3.8,1.9-5.4,0.6c-0.5-0.4-0.9-0.9-1.2-1.6l-10.3-30.9l-20.5,3.7c-6.8,1.2-12,6.8-12.7,13.6l-5.5,53.8   c-0.3,2.9,1.8,5.6,4.7,5.9c0.2,0,0.4,0,0.6,0h137.7C157.8,253.5,140.1,235.8,140.1,213.9C140.1,213.9,140.1,213.9,140.1,213.9z"/>
	<path class="st1" d="M85.7,207.3c0.8,2,3,2.9,5,2.1c0.6-0.2,1.1-0.6,1.6-1.2l13.2-16.4c-0.1-0.2-0.2-0.4-0.3-0.6l-8.9-19.7l0,0   l-20.9,4.8l0,0L85.7,207.3z"/>
	<path class="st1" d="M156.5,181.8l1.8-5.4l-5.1-1.2l-8.7,5c-1.2,0.7-2.7,0.3-3.3-0.9c-0.1-0.1-0.1-0.3-0.2-0.4   c-0.8-2.2-1-4.5-0.7-6.8l-2.8-0.6l-9.6,19.8l12.8,15.9C142.3,197.1,148,187.9,156.5,181.8z"/>
	<path class="st4" d="M116.2,163L116.2,163c-6.9,0-13.8-1.6-19.9-4.7v13.3l8.9,19.7c0.7,1.5,2.2,2.5,3.9,2.5h15   c1.6,0,3.1-0.9,3.8-2.4l9.6-19.8v-14C130.9,161.2,123.6,163,116.2,163z"/>
	<path class="st4" d="M122.4,64.1C106.1,84.7,82,81.8,73.9,80.1c-1.3-0.3-2.6,0.5-2.8,1.8c0,0.2-0.1,0.3-0.1,0.5v36   C71.1,143,91,163,115.7,163l0,0c24.7-0.1,44.6-20,44.7-44.7V78.5c0-0.2,0-0.5,0-0.7c0-1.3-1-2.3-2.3-2.3   c-18.6-0.5-28.3-7.9-32.1-11.6c-0.9-0.9-2.5-0.9-3.4,0C122.5,64,122.4,64.1,122.4,64.1z"/>
	<circle class="st1" cx="134" cy="101.8" r="5.8"/>
	<circle class="st1" cx="97.6" cy="101.8" r="5.8"/>
	<path class="st4" d="M163.2,84.3c-1,0-2,0.1-3,0.2c0.1,1,0.1,2,0.1,3v30.8c0,1,0,2-0.1,3c10.2,1.7,19.7-5.3,21.4-15.4   s-5.3-19.7-15.4-21.4C165.2,84.4,164.2,84.3,163.2,84.3L163.2,84.3z"/>
	<path class="st4" d="M71,118.4V87.6c0-1,0-2,0.1-3c-10.2-1.7-19.8,5.1-21.5,15.3c-1.7,10.2,5.1,19.8,15.3,21.5   c2.1,0.3,4.2,0.3,6.2,0C71,120.4,71,119.4,71,118.4z"/>
	<path class="st2" d="M68.1,84.3c1,0,1.9,0.1,2.9,0.2v-2.2c0-1.3,1.1-2.4,2.4-2.4c0.2,0,0.3,0,0.5,0.1c8.1,1.7,32.2,4.6,48.5-15.9   c0.8-1,2.3-1.2,3.4-0.4c0.1,0.1,0.1,0.1,0.2,0.2c3.8,3.7,13.5,11,32.1,11.6c1.3,0,2.3,1.1,2.3,2.3c0,0.2,0,0.5,0,0.7v6   c5.8-0.9,11.6,0.9,15.8,5V56c0-14.1-11.4-25.5-25.5-25.5c-4.6,0-9.1,1.3-13,3.6c-4.6-7.7-12.9-12.5-21.9-12.5h-13.1   c-25.4,0.1-46.1,20.7-46.1,46.1v20.7C59.8,85.7,63.9,84.3,68.1,84.3z"/>
	<path class="st5" d="M48.3,152.8h-1.8v-1.8c0-1.4-1.1-2.5-2.5-2.5s-2.5,1.1-2.5,2.5v1.8h-1.8c-1.4,0-2.5,1.1-2.5,2.5   s1.1,2.5,2.5,2.5h1.8v1.8c0,1.4,1.1,2.5,2.5,2.5s2.5-1.1,2.5-2.5v-1.8h1.8c1.4,0,2.5-1.1,2.5-2.5S49.7,152.8,48.3,152.8z"/>
	<path class="st3" d="M188.3,28.5c0-0.2-0.1-0.3-0.1-0.5c-0.1-0.1-0.1-0.3-0.2-0.4c-0.1-0.1-0.2-0.3-0.3-0.4c-1-0.9-2.5-0.9-3.5,0   c-0.1,0.1-0.2,0.2-0.3,0.4c-0.2,0.3-0.3,0.6-0.4,0.9c-0.1,0.3-0.1,0.7,0,1c0,0.2,0.1,0.3,0.1,0.5c0.1,0.2,0.1,0.3,0.2,0.4   c0.1,0.1,0.2,0.3,0.3,0.4c1,1,2.5,1,3.5,0c0,0,0,0,0,0c0.1-0.1,0.2-0.2,0.3-0.4c0.1-0.1,0.2-0.3,0.2-0.4c0.1-0.1,0.1-0.3,0.1-0.5   C188.4,29.2,188.4,28.8,188.3,28.5z"/>
	<path class="st6" d="M29.7,172.7c0-0.2-0.1-0.3-0.1-0.5c-0.1-0.1-0.1-0.3-0.2-0.4c-0.1-0.1-0.2-0.3-0.3-0.4c-1-0.9-2.5-0.9-3.5,0   c-0.1,0.1-0.2,0.2-0.3,0.4c-0.2,0.3-0.3,0.6-0.4,0.9c-0.1,0.3-0.1,0.7,0,1c0,0.2,0.1,0.3,0.1,0.5c0.1,0.2,0.1,0.3,0.2,0.4   c0.1,0.1,0.2,0.3,0.3,0.4c1,1,2.5,1,3.5,0c0,0,0,0,0,0c0.1-0.1,0.2-0.2,0.3-0.4c0.1-0.1,0.2-0.3,0.2-0.4c0.1-0.1,0.1-0.3,0.1-0.5   C29.8,173.4,29.8,173,29.7,172.7z"/>
	<path class="st0" d="M183,8.2c-4.1-0.8-7.2-4-8-8c0-0.1-0.1-0.2-0.2-0.2c-0.1,0-0.1,0.1-0.2,0.2c-0.8,4.1-4,7.2-8,8   c-0.1,0-0.2,0.1-0.2,0.2c0,0.1,0.1,0.1,0.2,0.2c4.1,0.8,7.2,4,8,8c0,0.1,0.1,0.2,0.2,0.2c0.1,0,0.1-0.1,0.2-0.2c0.8-4.1,4-7.2,8-8   c0.1,0,0.2-0.1,0.2-0.2C183.1,8.2,183.1,8.2,183,8.2z"/>
	<path class="st7" d="M89.2,212.2c-0.3,0-0.6,0-0.9-0.1c-2.2-0.3-4.1-1.8-5-3.9c0,0,0-0.1-0.1-0.1L73,177.2   c-0.4-1.3,0.3-2.7,1.6-3.2c0.1,0,0.2,0,0.2-0.1l20.9-4.8c1.2-0.3,2.4,0.3,2.8,1.4l8.9,19.7c0,0.1,0.1,0.2,0.1,0.2   c0.6,0.9,0.5,2.1-0.1,2.9l-13.2,16.4C93,211.4,91.2,212.2,89.2,212.2z M88,206.4c0.3,0.7,1.1,1,1.8,0.7c0.2-0.1,0.4-0.2,0.5-0.4   l12.2-15.2l-7.7-17.1l-16.2,3.7L88,206.4z"/>
	<path class="st7" d="M124,196.3h-15c-2.7,0-5.1-1.6-6.2-4l-8.9-19.7c-0.1-0.3-0.2-0.7-0.2-1v-13.3c0-1.4,1.1-2.5,2.5-2.5   c0.4,0,0.8,0.1,1.1,0.3c5.8,2.9,12.3,4.5,18.8,4.5c7,0,13.9-1.8,20-5.1c1.2-0.7,2.7-0.2,3.4,1c0.2,0.4,0.3,0.8,0.3,1.2v14   c0,0.4-0.1,0.8-0.2,1.1l-9.6,19.8C128.9,194.8,126.5,196.3,124,196.3z M98.7,171.1l8.6,19.2c0.3,0.6,0.9,1,1.6,1h15   c0.7,0,1.3-0.4,1.6-1l9.3-19.3v-9.4c-5.9,2.6-12.3,3.9-18.7,3.9c-6,0-11.9-1.1-17.4-3.4L98.7,171.1z"/>
	<path class="st7" d="M116.8,213.2c-1.4,0-2.5-1.1-2.5-2.5s1.1-2.5,2.5-2.5c0.2,0,0.3,0,0.5,0c0.2,0,0.3,0.1,0.5,0.1   c0.2,0.1,0.3,0.1,0.4,0.2c0.1,0.1,0.3,0.2,0.4,0.3c1,1,1,2.5,0,3.5c0,0,0,0,0,0c-0.1,0.1-0.2,0.2-0.4,0.3c-0.1,0.1-0.3,0.2-0.4,0.2   c-0.2,0.1-0.3,0.1-0.5,0.1C117.1,213.2,117,213.2,116.8,213.2z"/>
	<path class="st7" d="M116.8,228.4c-1.4,0-2.5-1.1-2.5-2.5c0-1.4,1.1-2.5,2.5-2.5c0.2,0,0.3,0,0.5,0c0.2,0,0.3,0.1,0.5,0.1   c0.2,0.1,0.3,0.1,0.4,0.2c0.1,0.1,0.3,0.2,0.4,0.3c0.5,0.5,0.7,1.1,0.7,1.8C119.3,227.3,118.2,228.4,116.8,228.4z"/>
	<path class="st7" d="M70.2,256c-1.4,0-2.5-1.1-2.5-2.5v-36.8c0-1.4,1.1-2.5,2.5-2.5s2.5,1.1,2.5,2.5v36.8   C72.7,254.9,71.6,256,70.2,256z"/>
	<path class="st7" d="M163.2,124.1c-1.1,0-2.3-0.1-3.4-0.3c-1.3-0.2-2.2-1.3-2.1-2.6c0.1-1.1,0.1-2,0.1-2.8V87.6   c0-0.9,0-1.8-0.1-2.8c-0.1-1.3,0.8-2.4,2.1-2.6c11.5-1.9,22.4,6,24.3,17.5s-6,22.4-17.5,24.3C165.5,124,164.4,124.1,163.2,124.1   L163.2,124.1z M162.9,119.1c0.1,0,0.3,0,0.4,0c8.9,0,16.2-7.3,16.1-16.2c0-8.9-7.3-16.2-16.2-16.1c-0.1,0-0.2,0-0.3,0   c0,0.3,0,0.5,0,0.8v30.8C162.9,118.6,162.9,118.9,162.9,119.1L162.9,119.1z"/>
	<path class="st7" d="M68.1,124.1c-11.7,0-21.2-9.5-21.2-21.2c0-11.7,9.5-21.2,21.2-21.2c1.1,0,2.3,0.1,3.4,0.3   c1.3,0.2,2.2,1.3,2.1,2.6c-0.1,1.1-0.1,2-0.1,2.8v30.8c0,0.8,0,1.7,0.1,2.8c0.1,1.3-0.8,2.4-2.1,2.6   C70.4,124,69.3,124.1,68.1,124.1z M68.1,86.8C59.2,86.8,52,94,52,103s7.2,16.2,16.2,16.2c0.1,0,0.2,0,0.4,0c0-0.3,0-0.5,0-0.8V87.6   c0-0.2,0-0.5,0-0.8C68.4,86.8,68.2,86.8,68.1,86.8L68.1,86.8z"/>
	<path class="st7" d="M115.7,165.5c-26,0-47.2-21.1-47.2-47.2V82.4c0-2.7,2.2-4.9,4.9-4.9c0.3,0,0.7,0,1,0.1c8.8,1.8,30.8,4.1,46-15   l0,0c1.7-2.1,4.8-2.5,6.9-0.8c0.1,0.1,0.3,0.2,0.4,0.3c3.2,3.1,12.4,10.3,30.4,10.9c2.6,0.1,4.7,2.2,4.7,4.8c0,0.2,0,0.5,0,0.7   v39.8C162.8,144.4,141.7,165.5,115.7,165.5z M73.5,82.5v35.8c0,23.3,18.9,42.2,42.2,42.2s42.2-18.9,42.2-42.2V78.5   c0-0.2,0-0.4,0-0.6c-18.9-0.6-29.1-7.9-33.6-12.2C107,87.4,81.2,84.1,73.5,82.5L73.5,82.5z M122.4,64.1l2,1.6l0,0L122.4,64.1z"/>
	<path class="st7" d="M176.2,92c-0.6,0-1.3-0.3-1.7-0.7c-3-2.9-7-4.5-11.2-4.5c-0.8,0-1.7,0.1-2.5,0.2c-1.4,0.2-2.6-0.7-2.9-2.1   c0-0.1,0-0.3,0-0.4v-6c0-0.2,0-0.4,0-0.6c-18.9-0.6-29.1-7.9-33.6-12.2C107,87.4,81.2,84.1,73.5,82.5v2c0,1.4-1.1,2.5-2.5,2.5   c-0.1,0-0.3,0-0.4,0c-0.8-0.1-1.7-0.2-2.5-0.2c-3.7,0-7.2,1.2-10.1,3.5c-1.1,0.9-2.7,0.7-3.5-0.4c-0.4-0.4-0.5-1-0.5-1.6V67.7   c0-26.8,21.8-48.6,48.6-48.6h13.1c9,0,17.4,4.4,22.7,11.7c13.9-6.8,30.6-1.1,37.4,12.8c1.9,3.9,2.9,8.1,2.8,12.4v33.6   C178.7,90.9,177.6,92,176.2,92L176.2,92z M163.2,81.8c3.7,0,7.3,0.9,10.4,2.8V56c0-12.7-10.2-23-22.9-23c-4.2,0-8.3,1.1-11.9,3.3   c-1.2,0.7-2.7,0.3-3.4-0.9c0,0,0,0,0,0c-4.2-7-11.6-11.2-19.7-11.3h-13.1C78.5,24.1,59,43.6,59,67.7v16.2c3-1.4,6.2-2.1,9.5-2.1   c0.1-1.2,0.8-2.4,1.8-3.2c1.1-0.9,2.7-1.3,4.1-1c8.8,1.8,30.8,4.1,46-15c1.7-2.1,4.8-2.5,6.9-0.8c0.1,0.1,0.3,0.2,0.4,0.3   c3.2,3.1,12.4,10.3,30.4,10.9c2.6,0.1,4.7,2.2,4.7,4.8c0,0.2,0,0.5,0,0.7v3.3C163,81.8,163.1,81.8,163.2,81.8z"/>
	<path class="st7" d="M136.5,117.8c-4.6,0-9-2.3-11.6-6.1c-0.8-1.1-0.5-2.7,0.7-3.5s2.7-0.5,3.5,0.7c2.8,4.1,8.3,5.2,12.4,2.4   c1-0.6,1.8-1.5,2.4-2.4c0.8-1.1,2.3-1.4,3.5-0.7c1.1,0.8,1.4,2.3,0.7,3.5C145.4,115.5,141.1,117.8,136.5,117.8z"/>
	<path class="st7" d="M95.1,117.8c-4.6,0-9-2.3-11.6-6.1c-0.8-1.1-0.5-2.7,0.7-3.5c1.1-0.8,2.7-0.5,3.5,0.7l0,0   c2.8,4.1,8.3,5.2,12.4,2.4c1-0.6,1.8-1.5,2.4-2.4c0.8-1.1,2.3-1.4,3.5-0.7c1.1,0.8,1.4,2.3,0.7,3.5   C104.1,115.5,99.8,117.8,95.1,117.8z"/>
	<path class="st7" d="M124.8,138.2c-0.6,0-1.2-0.2-1.6-0.6c-1.6-1.4-4.4-2.2-7.4-2.2s-5.8,0.8-7.4,2.2c-1,0.9-2.6,0.8-3.5-0.3   c-0.9-1-0.8-2.6,0.3-3.5c2.5-2.2,6.4-3.4,10.7-3.4s8.2,1.2,10.7,3.4c1,0.9,1.2,2.5,0.3,3.5C126.3,137.9,125.6,138.2,124.8,138.2   L124.8,138.2z"/>
	<path class="st7" d="M134,110.1c-4.6,0-8.3-3.7-8.3-8.3c0-4.6,3.7-8.3,8.3-8.3c4.6,0,8.3,3.7,8.3,8.3   C142.3,106.4,138.6,110.1,134,110.1z M134,98.5c-1.8,0-3.3,1.5-3.3,3.3s1.5,3.3,3.3,3.3c1.8,0,3.3-1.5,3.3-3.3   C137.3,100,135.8,98.5,134,98.5z"/>
	<path class="st7" d="M97.6,110.1c-4.6,0-8.3-3.7-8.3-8.3s3.7-8.3,8.3-8.3s8.3,3.7,8.3,8.3l0,0C105.9,106.4,102.2,110.1,97.6,110.1z    M97.6,98.5c-1.8,0-3.3,1.5-3.3,3.3s1.5,3.3,3.3,3.3c1.8,0,3.3-1.5,3.3-3.3l0,0C100.9,100,99.4,98.5,97.6,98.5z"/>
	<path class="st7" d="M179.7,256c-23.3,0-42.1-18.8-42.1-42.1s18.8-42.1,42.1-42.1s42.1,18.8,42.1,42.1l0,0   C221.7,237.1,202.9,256,179.7,256z M179.7,176.8c-20.5,0-37.1,16.6-37.1,37.1s16.6,37.1,37.1,37.1s37.1-16.6,37.1-37.1c0,0,0,0,0,0   C216.7,193.4,200.1,176.8,179.7,176.8z"/>
	<path class="st7" d="M179.7,246.3c-17.9,0-32.4-14.5-32.4-32.4c0-17.9,14.5-32.4,32.4-32.4c17.9,0,32.4,14.5,32.4,32.4c0,0,0,0,0,0   C212.1,231.8,197.6,246.3,179.7,246.3z M179.7,186.4c-15.2,0-27.4,12.3-27.4,27.4c0,15.2,12.3,27.4,27.4,27.4   c15.2,0,27.4-12.3,27.4-27.4C207.1,198.7,194.8,186.5,179.7,186.4L179.7,186.4z"/>
	<path class="st7" d="M165.9,228.6c-1.4,0-2.5-1.1-2.5-2.5c0-0.7,0.3-1.4,0.8-1.9l9.5-8.4c1-0.9,2.6-0.8,3.5,0.2   c0.9,1,0.8,2.6-0.2,3.5l0,0l-9.5,8.4C167.1,228.4,166.5,228.6,165.9,228.6z"/>
	<path class="st7" d="M193.7,216.4h-8.8c-1.4,0-2.5-1.1-2.5-2.5s1.1-2.5,2.5-2.5h8.8c1.4,0,2.5,1.1,2.5,2.5S195.1,216.4,193.7,216.4   z"/>
	<path class="st7" d="M179.7,221.3c-4.1,0-7.4-3.3-7.4-7.4s3.3-7.4,7.4-7.4s7.4,3.3,7.4,7.4c0,0,0,0,0,0   C187,218,183.7,221.3,179.7,221.3z M179.7,211.5c-1.3,0-2.4,1.1-2.4,2.4s1.1,2.4,2.4,2.4s2.4-1.1,2.4-2.4c0,0,0,0,0,0   C182,212.6,181,211.5,179.7,211.5L179.7,211.5z"/>
	<path class="st7" d="M179.7,176.8c-1.4,0-2.5-1.1-2.5-2.5v-10.7c0-1.4,1.1-2.5,2.5-2.5s2.5,1.1,2.5,2.5v10.7   C182.2,175.7,181,176.8,179.7,176.8z"/>
	<path class="st7" d="M183.7,166.1h-8c-1.4,0-2.5-1.1-2.5-2.5s1.1-2.5,2.5-2.5h8c1.4,0,2.5,1.1,2.5,2.5S185,166.1,183.7,166.1z"/>
	<path class="st7" d="M200.2,182.5c-1.4,0-2.5-1.1-2.5-2.5c0-0.5,0.1-0.9,0.4-1.3l3.7-6.2c0.7-1.2,2.3-1.5,3.4-0.8   c1.1,0.7,1.5,2.2,0.8,3.4l-3.7,6.2C201.9,182.1,201.1,182.5,200.2,182.5z"/>
	<path class="st7" d="M216.3,183.1c-0.9,0-1.7-0.2-2.5-0.7l-21.7-12.5c-1.3-0.7-2.2-2-2.4-3.5c-0.2-1.4,0.2-2.9,1.1-4   c6.4-7.4,17.6-8.2,25-1.8c5.5,4.7,7.5,12.3,5.1,19.2c-0.5,1.4-1.5,2.5-2.9,3C217.5,183,216.9,183.1,216.3,183.1z M194.7,165.6   l21.6,12.4c1.9-5.7-0.4-12-5.7-15.1l0,0C205.3,160,198.7,161.1,194.7,165.6L194.7,165.6z"/>
	<path class="st7" d="M143.2,183.1c-0.6,0-1.2-0.1-1.7-0.3c-1.4-0.5-2.4-1.6-2.9-3c-2.8-8,0.5-16.9,7.9-21.1l0,0   c7.4-4.2,16.7-2.7,22.2,3.8c0.9,1.1,1.4,2.6,1.1,4c-0.2,1.5-1.1,2.7-2.4,3.5l-21.7,12.5C144.9,182.9,144.1,183.1,143.2,183.1z    M143.3,178.2L143.3,178.2z M155.3,161.3c-2.2,0-4.4,0.6-6.3,1.7l0,0c-5.2,3-7.6,9.3-5.7,15.1l21.6-12.5   C162.4,162.9,158.9,161.3,155.3,161.3L155.3,161.3z M147.7,160.9L147.7,160.9z"/>
	<path class="st7" d="M159.2,182.5c-0.9,0-1.7-0.5-2.1-1.2l-3.7-6.1c-0.7-1.2-0.3-2.7,0.9-3.4c1.2-0.7,2.7-0.3,3.4,0.8l3.7,6.1   c0.7,1.2,0.3,2.7-0.8,3.4C160.2,182.3,159.7,182.5,159.2,182.5L159.2,182.5z"/>
	<path class="st7" d="M179.7,191c-1.4,0-2.5-1.1-2.5-2.5v-4.6c0-1.4,1.1-2.5,2.5-2.5s2.5,1.1,2.5,2.5v4.6   C182.2,189.9,181,191,179.7,191z"/>
	<path class="st7" d="M179.7,246.3c-1.4,0-2.5-1.1-2.5-2.5v-4.6c0-1.4,1.1-2.5,2.5-2.5s2.5,1.1,2.5,2.5v4.6   C182.2,245.2,181,246.3,179.7,246.3z"/>
	<path class="st7" d="M154.3,216.4h-4.6c-1.4,0-2.5-1.1-2.5-2.5s1.1-2.5,2.5-2.5h4.6c1.4,0,2.5,1.1,2.5,2.5S155.7,216.4,154.3,216.4   z"/>
	<path class="st7" d="M209.6,216.4H205c-1.4,0-2.5-1.1-2.5-2.5s1.1-2.5,2.5-2.5h4.6c1.4,0,2.5,1.1,2.5,2.5S211,216.4,209.6,216.4z"/>
	<path class="st7" d="M179.7,256H41.9c-4.3,0-7.9-3.5-7.9-7.9c0-0.3,0-0.6,0-0.9l5.5-53.8c0.9-8,6.9-14.4,14.8-15.8l20.5-3.7   c1.2-0.2,2.4,0.5,2.8,1.7L88,206.4c0.3,0.7,1.1,1,1.8,0.7c0.2-0.1,0.4-0.2,0.5-0.4l13.2-16.4c0.9-1.1,2.4-1.2,3.5-0.4   c0.2,0.2,0.4,0.4,0.5,0.6c0.3,0.5,0.9,0.8,1.5,0.8h15c0.7,0,1.3-0.4,1.6-1c0.6-1.2,2.1-1.8,3.3-1.2c0.3,0.2,0.6,0.4,0.9,0.7   l12.8,15.9c0.4,0.6,0.6,1.3,0.5,2c-0.3,2-0.5,4.1-0.5,6.1c0,20.5,16.6,37.1,37.1,37.1c1.4,0,2.5,1.1,2.5,2.5S181,256,179.7,256   L179.7,256z M73.6,179.3l-18.3,3.3c-5.7,1-10,5.7-10.7,11.4l-5.5,53.8c-0.2,1.6,0.9,3,2.5,3.2c0.1,0,0.2,0,0.3,0h117.8   c-15.6-8.3-24.3-25.5-21.8-43l-10.3-12.8c-1.1,0.7-2.4,1.1-3.7,1.1h-15c-1.1,0-2.2-0.3-3.2-0.8l-11.6,14.4c-2.2,2.7-6.2,3.2-8.9,1   c-0.8-0.7-1.5-1.6-1.9-2.6c0,0,0-0.1-0.1-0.1L73.6,179.3z"/>
	<path class="st7" d="M140.6,209.8c-0.8,0-1.5-0.3-1.9-0.9L125.8,193c-0.6-0.8-0.7-1.8-0.3-2.7l9.6-19.8c0.5-1.1,1.7-1.6,2.8-1.3   l2.8,0.6c1.2,0.3,2.1,1.5,1.9,2.7c-0.2,1.9,0,3.8,0.6,5.5l8.7-5c0.5-0.3,1.2-0.4,1.8-0.3l5.1,1.2c1.3,0.3,2.2,1.7,1.9,3   c0,0.1,0,0.2-0.1,0.2l-1.8,5.4c-0.2,0.5-0.5,0.9-0.9,1.2c-7.9,5.7-13.3,14.3-14.9,23.9C142.9,209,141.8,209.8,140.6,209.8   L140.6,209.8z M130.7,191.1l8.6,10.7c2.6-8.6,7.8-16.1,15-21.5l0.7-2l-1.5-0.3l-7.9,4.5c-1.3,0.7-2.8,0.9-4.2,0.4   c-1.4-0.5-2.4-1.6-2.9-3c-0.4-1.1-0.6-2.1-0.8-3.3L130.7,191.1z M156.5,181.8L156.5,181.8z"/>
</g>
</svg>
