<svg id="Flat" height="512" viewBox="0 0 512 512" width="512" xmlns="http://www.w3.org/2000/svg"><path d="m401.17993 315.79-49.17993 27.32-16 8.89v144h-160v-144l-16-8.89-49.17993-27.32a200.47178 200.47178 0 0 1 110.19993-95.87008l.35986-.12988a16.00751 16.00751 0 0 0 10.62014-15.07004v-12.72h48v12.72a16.00751 16.00751 0 0 0 10.62012 15.07l.35986.12988a200.40668 200.40668 0 0 1 110.2 95.87012z" fill="#396795"/><path d="m286.3999 217.52a45.258 45.258 0 0 1 -60.7998 0 15.97378 15.97378 0 0 0 6.3999-12.8v-12.72h48v12.72a15.97378 15.97378 0 0 0 6.3999 12.8z" fill="#f4ceaf"/><g fill="#f2c194"><path d="m216 144h-32a24 24 0 0 1 -24-24 24 24 0 0 1 24-24h8z"/><path d="m320 96h8a24 24 0 0 1 24 24 24 24 0 0 1 -24 24h-32z"/><path d="m280 192v11.88a71.96291 71.96291 0 0 1 -48 0v-11.88z"/></g><path d="m320 64v72.00006a63.99994 63.99994 0 0 1 -63.99994 63.99994h-.00012a63.99994 63.99994 0 0 1 -63.99994-63.99994v-72.00006z" fill="#f4ceaf"/><path d="m232 120h-16a8 8 0 0 1 0-16h16a8 8 0 0 1 0 16z" fill="#395166"/><path d="m296 120h-16a8 8 0 0 1 0-16h16a8 8 0 0 1 0 16z" fill="#395166"/><circle cx="224" cy="128" fill="#2f4054" r="8"/><circle cx="288" cy="128" fill="#2f4054" r="8"/><path d="m256 179.75244a43.79982 43.79982 0 0 1 -19.57812-4.59717 8.00005 8.00005 0 0 1 7.15624-14.31054 27.9117 27.9117 0 0 0 24.84376 0 8.00005 8.00005 0 0 1 7.15624 14.31054 43.79982 43.79982 0 0 1 -19.57812 4.59717z" fill="#f2c194"/><path d="m176 334.63v17.37l-16-8.89v-8.48a38.41257 38.41257 0 0 0 -11.31006-27.31994l11.31006-11.31006a54.27282 54.27282 0 0 1 16 38.63z" fill="#26507a"/><path d="m363.31006 307.31006a38.41257 38.41257 0 0 0 -11.31006 27.31994v8.48l-16 8.89v-17.37a54.27282 54.27282 0 0 1 16-38.63z" fill="#26507a"/><path d="m336 96h-30.70181a35.09936 35.09936 0 0 1 -33.29819-24 35.09936 35.09936 0 0 1 -33.29818 24h-62.70182v-.00007a71.99993 71.99993 0 0 1 72-71.99993h16.00012a71.99993 71.99993 0 0 1 71.99988 71.99993z" fill="#395166"/><path d="m256 152a7.99976 7.99976 0 0 1 -5.65625-13.65723l5.17187-5.17138a1.65859 1.65859 0 0 0 -.001-2.34375l-5.1709-5.17041a7.99984 7.99984 0 1 1 11.3125-11.31446l5.17187 5.17139a17.65746 17.65746 0 0 1 .001 24.9707l-5.17285 5.17237a7.97548 7.97548 0 0 1 -5.65624 2.34277z" fill="#f2c194"/><path d="m197.49 410.29a11.26416 11.26416 0 0 1 -19.23 7.97l-2.26-2.26 8 32a33.27968 33.27968 0 0 1 -31.59009-22.77l-.40991-1.23-3.32007-2.08008a78.67681 78.67681 0 0 1 -29.02-101.22l31.82007 17.68008a41.115 41.115 0 0 0 22.02 44.37l2.5 1.25 2.10986 1.06006a37.46122 37.46122 0 0 1 18.80005 21.66994 11.33246 11.33246 0 0 1 .58009 3.56z" fill="#f4ceaf"/><path d="m363 421.91992-3.32007 2.08008-.40991 1.23a33.27968 33.27968 0 0 1 -31.59009 22.77l8-32-2.26 2.26a11.26329 11.26329 0 0 1 -18.64993-11.53 37.49562 37.49562 0 0 1 18.80005-21.66992l2.10988-1.06008 2.5-1.25a41.11393 41.11393 0 0 0 22.05007-44.21l31.86009-17.7a78.65935 78.65935 0 0 1 -29.09009 101.07992z" fill="#f4ceaf"/><ellipse cx="256" cy="432" fill="#d3e1e9" rx="80" ry="56"/><ellipse cx="256" cy="432" fill="#a6b2bc" rx="48" ry="32"/><path d="m197.49 410.29a11.26416 11.26416 0 0 1 -19.23 7.97l-2.26-2.26-17-21 17-11 2.10986 1.06006a37.46122 37.46122 0 0 1 18.80005 21.66994 11.33246 11.33246 0 0 1 .58009 3.56z" fill="#f4ceaf"/><path d="m352.67993 395-17 21-2.26 2.26a11.26329 11.26329 0 0 1 -18.64993-11.53 37.49562 37.49562 0 0 1 18.80005-21.66992l2.10988-1.06008z" fill="#f4ceaf"/></svg>