<svg id="Layer_1" data-name="Layer 1" xmlns="http://www.w3.org/2000/svg" viewBox="0 0 3075.55 1053.34"><defs><style>.cls-1{fill:none;}</style></defs><polyline class="cls-1" points="2212.44 991.68 2212.44 744.34 2756.44 744.34 2756.44 991.68"/><path d="M2383.55,23.82c0-53.59-76.88,0-76.88,0s-76.89,53.59-76.89,0-76.89,0-76.89,0-76.89,53.59-76.89,0-76.89,0-76.89,0-76.89,53.59-76.89,0-76.89,0-76.89,0V1053.34h615.11V23.82S2383.55,77.41,2383.55,23.82Z"/><path d="M2998.66,23.82c0-53.59-76.88,0-76.88,0s-76.89,53.59-76.89,0-76.89,0-76.89,0-76.89,53.59-76.89,0-76.89,0-76.89,0-76.89,53.59-76.89,0-76.89,0-76.89,0V1053.34h615.11V23.82S2998.66,77.41,2998.66,23.82Z"/><path d="M1768.44,23.82c0-53.59-76.88,0-76.88,0s-76.89,53.59-76.89,0-76.89,0-76.89,0-76.89,53.59-76.89,0-76.89,0-76.89,0-76.89,53.59-76.89,0-76.89,0-76.89,0V1053.34h615.11V23.82S1768.44,77.41,1768.44,23.82Z"/><path d="M1153.33,23.82c0-53.59-76.88,0-76.88,0s-76.89,53.59-76.89,0-76.89,0-76.89,0-76.89,53.59-76.89,0-76.89,0-76.89,0S692,77.41,692,23.82s-76.89,0-76.89,0V1053.34h615.11V23.82S1153.33,77.41,1153.33,23.82Z"/><path d="M538.22,23.82c0-53.59-76.88,0-76.88,0s-76.89,53.59-76.89,0-76.89,0-76.89,0-76.89,53.59-76.89,0-76.89,0-76.89,0-76.89,53.59-76.89,0S0,23.82,0,23.82V1053.34H615.11V23.82S538.22,77.41,538.22,23.82Z"/></svg>